<svg width="16" height="16" viewBox="0 0 16 16" fill="none" xmlns="http://www.w3.org/2000/svg">
<path fill-rule="evenodd" clip-rule="evenodd" d="M2.4 2H6.6L8 3.375H13.6C14.37 3.375 15 3.99375 15 4.75V5H7C5.89543 5 5 5.89543 5 7V13H2.4C1.63 13 1 12.3813 1 11.625L1.007 3.375C1.007 2.61875 1.63 2 2.4 2Z" fill="url(#paint0_linear_288_981)"/>
<mask id="mask0_288_981" style="mask-type:alpha" maskUnits="userSpaceOnUse" x="6" y="6" width="10" height="8">
<rect x="6" y="6" width="10" height="8" rx="1.6" fill="#00B6C2"/>
</mask>
<g mask="url(#mask0_288_981)">
<rect x="6" y="6" width="10" height="8" fill="#80CBC4"/>
<path d="M13.85 10L8 15L16.55 14.6429L17 11.4286L13.85 10Z" fill="#343944"/>
<path d="M8.91667 10.1667C9.60703 10.1667 10.1667 9.60704 10.1667 8.91669C10.1667 8.22633 9.60703 7.66669 8.91667 7.66669C8.22632 7.66669 7.66667 8.22633 7.66667 8.91669C7.66667 9.60704 8.22632 10.1667 8.91667 10.1667Z" fill="white"/>
</g>
<defs>
<linearGradient id="paint0_linear_288_981" x1="4.5" y1="3.5" x2="9" y2="11.5" gradientUnits="userSpaceOnUse">
<stop stop-color="#587380"/>
<stop offset="1" stop-color="#587380" stop-opacity="0.4"/>
</linearGradient>
</defs>
</svg>
