<svg width="16" height="16" viewBox="0 0 16 16" fill="none" xmlns="http://www.w3.org/2000/svg">
<path fill-rule="evenodd" clip-rule="evenodd" d="M8 3.375H13.6C14.37 3.375 15 3.99375 15 4.75V5.26756C14.7058 5.09739 14.3643 5 14 5H13.6V4.75H2.4V11.625H5V13H2.4C1.63 13 1 12.3813 1 11.625L1.007 3.375C1.007 2.61875 1.63 2 2.4 2H6.6L8 3.375Z" fill="url(#paint0_linear_1_1246)"/>
<path fill-rule="evenodd" clip-rule="evenodd" d="M7.22223 6.22223C6.66994 6.22223 6.22223 6.66995 6.22223 7.22223V13.7778C6.22223 14.3301 6.66995 14.7778 7.22223 14.7778H13.7778C14.3301 14.7778 14.7778 14.3301 14.7778 13.7778V7.22223C14.7778 6.66994 14.3301 6.22223 13.7778 6.22223H7.22223ZM10.7474 10.7077L11.0598 10.5506L13.5607 9.29584L13.5486 12.1447L10.7353 13.5566L10.7474 10.7077ZM13.379 8.91979L10.5 7.44447L9.27778 8.05557L7.57701 8.91979L9.41172 9.81835L10.489 10.3706L11.5652 9.8313L13.379 8.91979ZM8.5094 10.5537L9.02512 10.7892L9.02807 10.0956L10.2307 10.7106L10.2186 13.5392L7.43758 12.1137L7.44959 9.2851L8.51248 9.82847L8.5094 10.5537Z" fill="#F78C6C"/>
<defs>
<linearGradient id="paint0_linear_1_1246" x1="2" y1="2.5" x2="12" y2="13" gradientUnits="userSpaceOnUse">
<stop stop-color="#80CBC4"/>
<stop offset="1" stop-color="#80CBC4" stop-opacity="0.5"/>
</linearGradient>
</defs>
</svg>
