<svg width="16" height="16" viewBox="0 0 16 16" fill="none" xmlns="http://www.w3.org/2000/svg">
<path fill-rule="evenodd" clip-rule="evenodd" d="M2.4 2H6.6L8 3.375H13.6C14.37 3.375 15 3.99375 15 4.75V5.58432C14.8867 5.56199 14.7697 5.55028 14.6498 5.55028L8.35017 5.55028C7.35611 5.55028 6.55026 6.35613 6.55026 7.35019L6.55026 13H2.4C1.63 13 1 12.3813 1 11.625L1.007 3.375C1.007 2.61875 1.63 2 2.4 2Z" fill="url(#paint0_linear_288_1145)"/>
<path d="M10.15 8.8C11.1 7.85 12.7 7.85 13.65 8.8C14 9.15001 14.25 9.65001 14.35 10.15L15.35 10C15.25 9.25001 14.9 8.6 14.4 8.1C13.05 6.75 10.85 6.75 9.45 8.1L8.35 7L8 10.2L11.2 9.85001L10.15 8.8Z" fill="#C3E88D"/>
<path d="M15.8 10.9L12.6 11.25L13.65 12.3C12.7 13.25 11.1 13.25 10.15 12.3C9.79999 11.95 9.54998 11.45 9.44998 10.95L8.44998 11.1C8.54998 11.85 8.89998 12.5 9.39998 13C10.1 13.7 10.95 14 11.85 14C12.75 14 13.65 13.65 14.3 13L15.4 14.1L15.8 10.9Z" fill="#FC8289"/>
<defs>
<linearGradient id="paint0_linear_288_1145" x1="4.5" y1="3.5" x2="9" y2="11.5" gradientUnits="userSpaceOnUse">
<stop stop-color="#587380"/>
<stop offset="1" stop-color="#587380" stop-opacity="0.4"/>
</linearGradient>
</defs>
</svg>
