<svg width="16" height="16" viewBox="0 0 16 16" fill="none" xmlns="http://www.w3.org/2000/svg">
<path d="M5.45777 8.86223C4.94233 9.00851 4.60417 9.26499 4.38141 9.52127C4.59477 9.33455 4.88057 9.16319 5.26609 9.05391C5.66041 8.94215 5.99681 8.94295 6.27477 8.99659V8.77923C6.03765 8.75755 5.76581 8.77483 5.45777 8.86223ZM4.35785 7.03503L2.44359 7.53935C2.44359 7.53935 2.47848 7.58863 2.54308 7.65439L4.16613 7.22671C4.16613 7.22671 4.14313 7.52307 3.9434 7.78819C4.32121 7.50235 4.35785 7.03503 4.35785 7.03503ZM5.96021 11.5339C3.26634 12.2594 1.8411 9.13751 1.40959 7.51711C1.21023 6.76915 1.1232 6.20267 1.10001 5.83711C1.09752 5.79915 1.09867 5.76715 1.10135 5.73783C0.961608 5.74627 0.894704 5.81891 0.908316 6.02883C0.931512 6.39419 1.01854 6.96063 1.2179 7.70883C1.64921 9.32899 3.07464 12.4509 5.76853 11.7253C6.35489 11.5674 6.79541 11.2797 7.12609 10.9124C6.82129 11.1877 6.43981 11.4045 5.96021 11.5339ZM6.46645 5.12439V5.31611H7.52309C7.50141 5.24823 7.47957 5.18707 7.45789 5.12439H6.46645Z" fill="#343944"/>
<path d="M7.75922 6.70334C8.23442 6.8383 8.48574 7.17146 8.61858 7.4663L9.14842 7.61678C9.14842 7.61678 9.07614 6.5849 8.14278 6.31978C7.26962 6.0717 6.7323 6.80494 6.66694 6.89982C6.92094 6.71886 7.29186 6.5707 7.75922 6.70334ZM11.9769 7.47106C11.1029 7.22186 10.5658 7.95662 10.5014 8.05018C10.7556 7.86942 11.1263 7.72122 11.5935 7.85446C12.0679 7.98962 12.319 8.32238 12.4523 8.61742L12.9829 8.76846C12.9829 8.76846 12.9094 7.73638 11.9769 7.47106ZM11.4505 10.1918L7.04286 8.95958C7.04286 8.95958 7.09058 9.2015 7.27366 9.51474L10.9847 10.5522C11.2902 10.3754 11.4505 10.1918 11.4505 10.1918ZM8.39466 12.8441C4.9047 11.9084 5.32662 7.4617 5.89134 5.35458C6.12386 4.48622 6.3629 3.84079 6.56114 3.40814C6.44286 3.38379 6.3449 3.4461 6.2481 3.64297C6.03762 4.06986 5.76846 4.76494 5.50798 5.73798C4.94342 7.84506 4.5215 12.2916 8.0113 13.2273C9.65622 13.6679 10.9377 12.9982 11.8929 11.9463C10.9862 12.7676 9.82854 13.228 8.39466 12.8441Z" fill="#343944"/>
<path d="M6.46644 10.4918V9.59453L3.97329 10.3015C3.97329 10.3015 4.15752 9.23109 5.45776 8.86225C5.85208 8.75049 6.18852 8.75125 6.46644 8.80493V5.12441H7.71476C7.57884 4.70441 7.44736 4.38105 7.33692 4.15637C7.15424 3.78449 6.96696 4.03101 6.5418 4.38661C6.24236 4.63677 5.48556 5.17045 4.34672 5.47733C3.20786 5.78441 2.28716 5.70297 1.90301 5.63645C1.3584 5.54249 1.07355 5.42289 1.10019 5.83713C1.12339 6.20249 1.21042 6.76897 1.40978 7.51713C1.84109 9.13733 3.26652 12.2592 5.9604 11.5337C6.66408 11.3441 7.16076 10.9693 7.50504 10.4916H6.46644V10.4918ZM2.44339 7.53937L4.35784 7.03505C4.35784 7.03505 4.30204 7.77153 3.58435 7.96073C2.86645 8.14973 2.44339 7.53937 2.44339 7.53937Z" fill="#FC8289"/>
<path d="M13.6714 5.16696C13.1738 5.2542 11.9799 5.36288 10.5045 4.9674C9.02863 4.57216 8.04943 3.8809 7.66147 3.55598C7.11151 3.09534 6.86959 2.77521 6.63151 3.25943C6.42103 3.68652 6.15187 4.3816 5.89135 5.35464C5.32683 7.46172 4.90491 11.9082 8.39467 12.8439C11.8837 13.7788 13.7412 9.7168 14.3058 7.60952C14.5663 6.63668 14.6805 5.9 14.712 5.425C14.7478 4.88692 14.3782 5.04312 13.6714 5.16696ZM6.65987 6.91024C6.65987 6.91024 7.20983 6.05488 8.14259 6.32C9.07595 6.58512 9.14823 7.617 9.14823 7.617L6.65987 6.91024ZM8.93679 10.7485C7.29611 10.2679 7.04307 8.9596 7.04307 8.9596L11.4505 10.1918C11.4505 10.1916 10.5608 11.2231 8.93679 10.7485ZM10.4951 8.0598C10.4951 8.0598 11.0443 7.20504 11.9769 7.47092C12.9094 7.73644 12.9829 8.76832 12.9829 8.76832L10.4951 8.0598Z" fill="#AEE33E"/>
<path d="M5.59521 9.84159L3.9733 10.3013C3.9733 10.3013 4.14949 9.29759 5.34429 8.89983L4.42589 5.45319L4.34653 5.47731C3.20768 5.78443 2.28697 5.70295 1.90282 5.63643C1.35822 5.54251 1.07337 5.42287 1.10001 5.83715C1.12321 6.20251 1.21023 6.76895 1.40959 7.51715C1.84091 9.13731 3.26634 12.2592 5.96021 11.5337L6.03957 11.5087L5.59521 9.84159ZM2.4434 7.53939L4.35785 7.03503C4.35785 7.03503 4.30205 7.77151 3.58435 7.96071C2.86647 8.14971 2.4434 7.53939 2.4434 7.53939Z" fill="#F07178"/>
<path d="M9.01079 10.7665L8.93659 10.7485C7.29591 10.2679 7.04287 8.9596 7.04287 8.9596L9.31559 9.59488L10.5188 4.97124L10.5043 4.9674C9.02843 4.57216 8.04927 3.8809 7.66127 3.55598C7.11131 3.09534 6.86939 2.77521 6.63131 3.25943C6.42103 3.68652 6.15187 4.3816 5.89135 5.35464C5.32683 7.46172 4.90491 11.9082 8.39467 12.8439L8.46619 12.86L9.01079 10.7665ZM6.65987 6.91024C6.65987 6.91024 7.20983 6.05488 8.14259 6.32C9.07595 6.58512 9.14823 7.617 9.14823 7.617L6.65987 6.91024Z" fill="#2ECC71"/>
<path d="M5.67785 9.81803L5.24289 9.94147C5.34565 10.5207 5.52677 11.0767 5.81105 11.5678C5.86053 11.5569 5.90961 11.5475 5.96001 11.5337C6.09209 11.498 6.21457 11.4539 6.33249 11.4058C6.01485 10.9344 5.80473 10.3915 5.67785 9.81803ZM5.50801 5.73803C5.28449 6.57227 5.08453 7.77303 5.13957 8.97743C5.23809 8.93467 5.34217 8.89483 5.45777 8.86203L5.53829 8.84403C5.44013 7.55755 5.65233 6.24659 5.89137 5.35463C5.95197 5.12899 6.01273 4.91911 6.07329 4.72339C5.97573 4.78547 5.87069 4.84911 5.75105 4.91467C5.67037 5.16371 5.58889 5.43591 5.50801 5.73803Z" fill="#C04B41"/>
</svg>
